<!--?xml version="1.0" standalone="no"?--> <svg id="sw-js-blob-svg" viewBox="0 0 100 100" xmlns="http://www.w3.org/2000/svg" version="1.1">
<defs>
            <linearGradient id="skyGradient" x1="100%" y1="100%">
              <stop offset="0%" stop-color="lightblue" stop-opacity=".5">
                <animate
                  attributeName="stop-color"
                  values="black;white;black;white;black;white;black;white;black;white;black;white;"
                  dur="14s"
                  repeatCount="indefinite"
                />
              </stop>
              <stop offset="100%" stop-color="lightblue" stop-opacity=".5">
                <animate
                  attributeName="stop-color"
                  values="black;white;black;white;black;white;black;white;black;white;black;white;"
                  dur="14s"
                  repeatCount="indefinite"
                />
                <animate
                  attributeName="offset"
                  values=".95;.80;.60;.40;.20;0;.20;.40;.60;.80;.95"
                  dur="14s"
                  repeatCount="indefinite"
                />
              </stop>
            </linearGradient>
          </defs>
  <path fill="url(#skyGradient)" d="M20.3,-23.9C26.2,-19.1,31,-12.7,31.6,-6.1C32.1,0.5,28.3,7.4,24.3,13.8C20.3,20.3,16.1,26.4,9.2,31.5C2.4,36.7,-7,41,-15,39C-22.9,37,-29.3,28.8,-34.5,19.9C-39.7,10.9,-43.8,1.3,-41.1,-6.1C-38.4,-13.5,-29.1,-18.5,-21.1,-22.9C-13.2,-27.3,-6.6,-31.1,0.3,-31.5C7.1,-31.8,14.3,-28.7,20.3,-23.9Z" width="100%" height="100%" transform="translate(50 50)" stroke-width="0" style="transition: all 0.3s ease 0s;"></path>
</svg>